<svg width="64" height="48" viewBox="0 0 64 48" fill="none" xmlns="http://www.w3.org/2000/svg">
<path d="M35.1892 45.3861C38.4765 47.0509 42.1864 48 46.1154 48C52.2516 48 58.1374 45.6661 62.63 41.5274C64.0075 40.2204 63.8196 38.7267 62.4734 37.5598L57.6834 33.5455C56.3216 32.4564 55.1319 32.612 53.7074 33.67C51.5472 35.3815 48.8861 36.2684 46.1311 36.2684C39.3061 36.2684 33.7178 30.776 33.7178 23.9767C33.7178 17.1929 39.2905 11.6849 46.1311 11.6538C48.98 11.6538 51.7664 12.6185 53.9579 14.4233C55.3197 15.5125 56.5094 15.7147 57.8713 14.61L62.7708 10.7981C64.2423 9.63112 64.4301 8.19968 63.1309 6.90827C58.5913 2.48947 52.4864 0 46.1154 0C36.9424 0 28.9591 5.1034 24.8579 12.634L35.1892 45.3861Z" fill="#41B1EA"/>
<path d="M16.7963 0.466775L0 47.9689H13.0394L15.8884 39.7536H30.1018L32.8725 47.9689H45.865L29.1157 0.466775H16.7963ZM18.8626 29.2201L22.9325 16.0571L27.3938 29.2201H18.8626Z" fill="#FEFEFE"/>
</svg>
